<svg width="1441" height="1051" viewBox="0 0 1441 1051" fill="none" xmlns="http://www.w3.org/2000/svg">
<rect x="2" width="1439" height="1051" stroke="url(#paint0_radial_200_810)" stroke-opacity="0.6" stroke-width="1.61099"/>
<g style="mix-blend-mode:soft-light" opacity="0.7">
<path d="M-97.0227 108H-136V149.75M-97.0227 108V149.75M-97.0227 108H-58.0455M-97.0227 149.75H-136M-97.0227 149.75V191.5M-97.0227 149.75H-58.0455M-136 149.75V191.5M-97.0227 191.5H-136M-97.0227 191.5V233.25M-97.0227 191.5H-58.0455M-136 191.5V233.25M-97.0227 233.25H-136M-97.0227 233.25V275M-97.0227 233.25H-58.0455M-136 233.25V275M-97.0227 275H-136M-97.0227 275V316.75M-97.0227 275H-58.0455M-136 275V316.75M-97.0227 316.75H-136M-97.0227 316.75V358.5M-97.0227 316.75H-58.0455M-136 316.75V358.5M-97.0227 358.5H-136M-97.0227 358.5V400.25M-97.0227 358.5H-58.0455M-136 358.5V400.25M-97.0227 400.25H-136M-97.0227 400.25V442M-97.0227 400.25H-58.0455M-136 400.25V442M-97.0227 442H-136M-97.0227 442V483.75M-97.0227 442H-58.0455M-136 442V483.75M-97.0227 483.75H-136M-97.0227 483.75V525.5M-97.0227 483.75H-58.0455M-136 483.75V525.5M-97.0227 525.5H-136M-97.0227 525.5V567.25M-97.0227 525.5H-58.0455M-136 525.5V567.25M-97.0227 567.25H-136M-97.0227 567.25V609M-97.0227 567.25H-58.0455M-136 567.25V609M-97.0227 609H-136M-97.0227 609V650.75M-97.0227 609H-58.0455M-136 609V650.75M-97.0227 650.75H-136M-97.0227 650.75V692.5M-97.0227 650.75H-58.0455M-136 650.75V692.5M-97.0227 692.5H-136M-97.0227 692.5V734.25M-97.0227 692.5H-58.0455M-136 692.5V734.25M-97.0227 734.25H-136M-97.0227 734.25V776M-97.0227 734.25H-58.0455M-136 734.25V776M-97.0227 776H-136M-97.0227 776V817.75M-97.0227 776H-58.0455M-136 776V817.75M-97.0227 817.75H-136M-97.0227 817.75V859.5M-97.0227 817.75H-58.0455M-136 817.75V859.5M-97.0227 859.5H-136M-97.0227 859.5V901.25M-97.0227 859.5H-58.0455M-136 859.5V901.25M-97.0227 901.25H-136M-97.0227 901.25V943M-97.0227 901.25H-58.0455M-136 901.25V943H-97.0227M-97.0227 943H-58.0455M-58.0455 108V149.75M-58.0455 108H-19.0682M-58.0455 149.75V191.5M-58.0455 149.75H-19.0682M-58.0455 191.5V233.25M-58.0455 191.5H-19.0682M-58.0455 233.25V275M-58.0455 233.25H-19.0682M-58.0455 275V316.75M-58.0455 275H-19.0682M-58.0455 316.75V358.5M-58.0455 316.75H-19.0682M-58.0455 358.5V400.25M-58.0455 358.5H-19.0682M-58.0455 400.25V442M-58.0455 400.25H-19.0682M-58.0455 442V483.75M-58.0455 442H-19.0682M-58.0455 483.75V525.5M-58.0455 483.75H-19.0682M-58.0455 525.5V567.25M-58.0455 525.5H-19.0682M-58.0455 567.25V609M-58.0455 567.25H-19.0682M-58.0455 609V650.75M-58.0455 609H-19.0682M-58.0455 650.75V692.5M-58.0455 650.75H-19.0682M-58.0455 692.5V734.25M-58.0455 692.5H-19.0682M-58.0455 734.25V776M-58.0455 734.25H-19.0682M-58.0455 776V817.75M-58.0455 776H-19.0682M-58.0455 817.75V859.5M-58.0455 817.75H-19.0682M-58.0455 859.5V901.25M-58.0455 859.5H-19.0682M-58.0455 901.25V943M-58.0455 901.25H-19.0682M-58.0455 943H-19.0682M-19.0682 108V149.75M-19.0682 108H19.9091M-19.0682 149.75V191.5M-19.0682 149.75H19.9091M-19.0682 191.5V233.25M-19.0682 191.5H19.9091M-19.0682 233.25V275M-19.0682 233.25H19.9091M-19.0682 275V316.75M-19.0682 275H19.9091M-19.0682 316.75V358.5M-19.0682 316.75H19.9091M-19.0682 358.5V400.25M-19.0682 358.5H19.9091M-19.0682 400.25V442M-19.0682 400.25H19.9091M-19.0682 442V483.75M-19.0682 442H19.9091M-19.0682 483.75V525.5M-19.0682 483.75H19.9091M-19.0682 525.5V567.25M-19.0682 525.5H19.9091M-19.0682 567.25V609M-19.0682 567.25H19.9091M-19.0682 609V650.75M-19.0682 609H19.9091M-19.0682 650.75V692.5M-19.0682 650.75H19.9091M-19.0682 692.5V734.25M-19.0682 692.5H19.9091M-19.0682 734.25V776M-19.0682 734.25H19.9091M-19.0682 776V817.75M-19.0682 776H19.9091M-19.0682 817.75V859.5M-19.0682 817.75H19.9091M-19.0682 859.5V901.25M-19.0682 859.5H19.9091M-19.0682 901.25V943M-19.0682 901.25H19.9091M-19.0682 943H19.9091M19.9091 108V149.75M19.9091 108H58.8864M19.9091 149.75V191.5M19.9091 149.75H58.8864M19.9091 191.5V233.25M19.9091 191.5H58.8864M19.9091 233.25V275M19.9091 233.25H58.8864M19.9091 275V316.75M19.9091 275H58.8864M19.9091 316.75V358.5M19.9091 316.75H58.8864M19.9091 358.5V400.25M19.9091 358.5H58.8864M19.9091 400.25V442M19.9091 400.25H58.8864M19.9091 442V483.75M19.9091 442H58.8864M19.9091 483.75V525.5M19.9091 483.75H58.8864M19.9091 525.5V567.25M19.9091 525.5H58.8864M19.9091 567.25V609M19.9091 567.25H58.8864M19.9091 609V650.75M19.9091 609H58.8864M19.9091 650.75V692.5M19.9091 650.75H58.8864M19.9091 692.5V734.25M19.9091 692.5H58.8864M19.9091 734.25V776M19.9091 734.25H58.8864M19.9091 776V817.75M19.9091 776H58.8864M19.9091 817.75V859.5M19.9091 817.75H58.8864M19.9091 859.5V901.25M19.9091 859.5H58.8864M19.9091 901.25V943M19.9091 901.25H58.8864M19.9091 943H58.8864M58.8864 108V149.75M58.8864 108H97.8636M58.8864 149.75V191.5M58.8864 149.75H97.8636M58.8864 191.5V233.25M58.8864 191.5H97.8636M58.8864 233.25V275M58.8864 233.25H97.8636M58.8864 275V316.75M58.8864 275H97.8636M58.8864 316.75V358.5M58.8864 316.75H97.8636M58.8864 358.5V400.25M58.8864 358.5H97.8636M58.8864 400.25V442M58.8864 400.25H97.8636M58.8864 442V483.75M58.8864 442H97.8636M58.8864 483.75V525.5M58.8864 483.75H97.8636M58.8864 525.5V567.25M58.8864 525.5H97.8636M58.8864 567.25V609M58.8864 567.25H97.8636M58.8864 609V650.75M58.8864 609H97.8636M58.8864 650.75V692.5M58.8864 650.75H97.8636M58.8864 692.5V734.25M58.8864 692.5H97.8636M58.8864 734.25V776M58.8864 734.25H97.8636M58.8864 776V817.75M58.8864 776H97.8636M58.8864 817.75V859.5M58.8864 817.75H97.8636M58.8864 859.5V901.25M58.8864 859.5H97.8636M58.8864 901.25V943M58.8864 901.25H97.8636M58.8864 943H97.8636M97.8636 108V149.75M97.8636 108H136.841M97.8636 149.75V191.5M97.8636 149.75H136.841M97.8636 191.5V233.25M97.8636 191.5H136.841M97.8636 233.25V275M97.8636 233.25H136.841M97.8636 275V316.75M97.8636 275H136.841M97.8636 316.75V358.5M97.8636 316.75H136.841M97.8636 358.5V400.25M97.8636 358.5H136.841M97.8636 400.25V442M97.8636 400.25H136.841M97.8636 442V483.75M97.8636 442H136.841M97.8636 483.75V525.5M97.8636 483.75H136.841M97.8636 525.5V567.25M97.8636 525.5H136.841M97.8636 567.25V609M97.8636 567.25H136.841M97.8636 609V650.75M97.8636 609H136.841M97.8636 650.75V692.5M97.8636 650.75H136.841M97.8636 692.5V734.25M97.8636 692.5H136.841M97.8636 734.25V776M97.8636 734.25H136.841M97.8636 776V817.75M97.8636 776H136.841M97.8636 817.75V859.5M97.8636 817.75H136.841M97.8636 859.5V901.25M97.8636 859.5H136.841M97.8636 901.25V943M97.8636 901.25H136.841M97.8636 943H136.841M136.841 108V149.75M136.841 108H175.818M136.841 149.75V191.5M136.841 149.75H175.818M136.841 191.5V233.25M136.841 191.5H175.818M136.841 233.25V275M136.841 233.25H175.818M136.841 275V316.75M136.841 275H175.818M136.841 316.75V358.5M136.841 316.75H175.818M136.841 358.5V400.25M136.841 358.5H175.818M136.841 400.25V442M136.841 400.25H175.818M136.841 442V483.75M136.841 442H175.818M136.841 483.75V525.5M136.841 483.75H175.818M136.841 525.5V567.25M136.841 525.5H175.818M136.841 567.25V609M136.841 567.25H175.818M136.841 609V650.75M136.841 609H175.818M136.841 650.75V692.5M136.841 650.75H175.818M136.841 692.5V734.25M136.841 692.5H175.818M136.841 734.25V776M136.841 734.25H175.818M136.841 776V817.75M136.841 776H175.818M136.841 817.75V859.5M136.841 817.75H175.818M136.841 859.5V901.25M136.841 859.5H175.818M136.841 901.25V943M136.841 901.25H175.818M136.841 943H175.818M175.818 108V149.75M175.818 108H214.795M175.818 149.75V191.5M175.818 149.75H214.795M175.818 191.5V233.25M175.818 191.5H214.795M175.818 233.25V275M175.818 233.25H214.795M175.818 275V316.75M175.818 275H214.795M175.818 316.75V358.5M175.818 316.75H214.795M175.818 358.5V400.25M175.818 358.5H214.795M175.818 400.25V442M175.818 400.25H214.795M175.818 442V483.75M175.818 442H214.795M175.818 483.75V525.5M175.818 483.75H214.795M175.818 525.5V567.25M175.818 525.5H214.795M175.818 567.25V609M175.818 567.25H214.795M175.818 609V650.75M175.818 609H214.795M175.818 650.75V692.5M175.818 650.75H214.795M175.818 692.5V734.25M175.818 692.5H214.795M175.818 734.25V776M175.818 734.25H214.795M175.818 776V817.75M175.818 776H214.795M175.818 817.75V859.5M175.818 817.75H214.795M175.818 859.5V901.25M175.818 859.5H214.795M175.818 901.25V943M175.818 901.25H214.795M175.818 943H214.795M214.795 108V149.75M214.795 108H253.773M214.795 149.75V191.5M214.795 149.75H253.773M214.795 191.5V233.25M214.795 191.5H253.773M214.795 233.25V275M214.795 233.25H253.773M214.795 275V316.75M214.795 275H253.773M214.795 316.75V358.5M214.795 316.75H253.773M214.795 358.5V400.25M214.795 358.5H253.773M214.795 400.25V442M214.795 400.25H253.773M214.795 442V483.75M214.795 442H253.773M214.795 483.75V525.5M214.795 483.75H253.773M214.795 525.5V567.25M214.795 525.5H253.773M214.795 567.25V609M214.795 567.25H253.773M214.795 609V650.75M214.795 609H253.773M214.795 650.75V692.5M214.795 650.75H253.773M214.795 692.5V734.25M214.795 692.5H253.773M214.795 734.25V776M214.795 734.25H253.773M214.795 776V817.75M214.795 776H253.773M214.795 817.75V859.5M214.795 817.75H253.773M214.795 859.5V901.25M214.795 859.5H253.773M214.795 901.25V943M214.795 901.25H253.773M214.795 943H253.773M253.773 108V149.75M253.773 108H292.75M253.773 149.75V191.5M253.773 149.75H292.75M253.773 191.5V233.25M253.773 191.5H292.75M253.773 233.25V275M253.773 233.25H292.75M253.773 275V316.75M253.773 275H292.75M253.773 316.75V358.5M253.773 316.75H292.75M253.773 358.5V400.25M253.773 358.5H292.75M253.773 400.25V442M253.773 400.25H292.75M253.773 442V483.75M253.773 442H292.75M253.773 483.75V525.5M253.773 483.75H292.75M253.773 525.5V567.25M253.773 525.5H292.75M253.773 567.25V609M253.773 567.25H292.75M253.773 609V650.75M253.773 609H292.75M253.773 650.75V692.5M253.773 650.75H292.75M253.773 692.5V734.25M253.773 692.5H292.75M253.773 734.25V776M253.773 734.25H292.75M253.773 776V817.75M253.773 776H292.75M253.773 817.75V859.5M253.773 817.75H292.75M253.773 859.5V901.25M253.773 859.5H292.75M253.773 901.25V943M253.773 901.25H292.75M253.773 943H292.75M292.75 108V149.75M292.75 108H331.727M292.75 149.75V191.5M292.75 149.75H331.727M292.75 191.5V233.25M292.75 191.5H331.727M292.75 233.25V275M292.75 233.25H331.727M292.75 275V316.75M292.75 275H331.727M292.75 316.75V358.5M292.75 316.75H331.727M292.75 358.5V400.25M292.75 358.5H331.727M292.75 400.25V442M292.75 400.25H331.727M292.75 442V483.75M292.75 442H331.727M292.75 483.75V525.5M292.75 483.75H331.727M292.75 525.5V567.25M292.75 525.5H331.727M292.75 567.25V609M292.75 567.25H331.727M292.75 609V650.75M292.75 609H331.727M292.75 650.75V692.5M292.75 650.75H331.727M292.75 692.5V734.25M292.75 692.5H331.727M292.75 734.25V776M292.75 734.25H331.727M292.75 776V817.75M292.75 776H331.727M292.75 817.75V859.5M292.75 817.75H331.727M292.75 859.5V901.25M292.75 859.5H331.727M292.75 901.25V943M292.75 901.25H331.727M292.75 943H331.727M331.727 108V149.75M331.727 108H370.705M331.727 149.75V191.5M331.727 149.75H370.705M331.727 191.5V233.25M331.727 191.5H370.705M331.727 233.25V275M331.727 233.25H370.705M331.727 275V316.75M331.727 275H370.705M331.727 316.75V358.5M331.727 316.75H370.705M331.727 358.5V400.25M331.727 358.5H370.705M331.727 400.25V442M331.727 400.25H370.705M331.727 442V483.75M331.727 442H370.705M331.727 483.75V525.5M331.727 483.75H370.705M331.727 525.5V567.25M331.727 525.5H370.705M331.727 567.25V609M331.727 567.25H370.705M331.727 609V650.75M331.727 609H370.705M331.727 650.75V692.5M331.727 650.75H370.705M331.727 692.5V734.25M331.727 692.5H370.705M331.727 734.25V776M331.727 734.25H370.705M331.727 776V817.75M331.727 776H370.705M331.727 817.75V859.5M331.727 817.75H370.705M331.727 859.5V901.25M331.727 859.5H370.705M331.727 901.25V943M331.727 901.25H370.705M331.727 943H370.705M370.705 108V149.75M370.705 108H409.682M370.705 149.75V191.5M370.705 149.75H409.682M370.705 191.5V233.25M370.705 191.5H409.682M370.705 233.25V275M370.705 233.25H409.682M370.705 275V316.75M370.705 275H409.682M370.705 316.75V358.5M370.705 316.75H409.682M370.705 358.5V400.25M370.705 358.5H409.682M370.705 400.25V442M370.705 400.25H409.682M370.705 442V483.75M370.705 442H409.682M370.705 483.75V525.5M370.705 483.75H409.682M370.705 525.5V567.25M370.705 525.5H409.682M370.705 567.25V609M370.705 567.25H409.682M370.705 609V650.75M370.705 609H409.682M370.705 650.75V692.5M370.705 650.75H409.682M370.705 692.5V734.25M370.705 692.5H409.682M370.705 734.25V776M370.705 734.25H409.682M370.705 776V817.75M370.705 776H409.682M370.705 817.75V859.5M370.705 817.75H409.682M370.705 859.5V901.25M370.705 859.5H409.682M370.705 901.25V943M370.705 901.25H409.682M370.705 943H409.682M409.682 108V149.75M409.682 108H448.659M409.682 149.75V191.5M409.682 149.75H448.659M409.682 191.5V233.25M409.682 191.5H448.659M409.682 233.25V275M409.682 233.25H448.659M409.682 275V316.75M409.682 275H448.659M409.682 316.75V358.5M409.682 316.75H448.659M409.682 358.5V400.25M409.682 358.5H448.659M409.682 400.25V442M409.682 400.25H448.659M409.682 442V483.75M409.682 442H448.659M409.682 483.75V525.5M409.682 483.75H448.659M409.682 525.5V567.25M409.682 525.5H448.659M409.682 567.25V609M409.682 567.25H448.659M409.682 609V650.75M409.682 609H448.659M409.682 650.75V692.5M409.682 650.75H448.659M409.682 692.5V734.25M409.682 692.5H448.659M409.682 734.25V776M409.682 734.25H448.659M409.682 776V817.75M409.682 776H448.659M409.682 817.75V859.5M409.682 817.75H448.659M409.682 859.5V901.25M409.682 859.5H448.659M409.682 901.25V943M409.682 901.25H448.659M409.682 943H448.659M448.659 108V149.75M448.659 108H487.636M448.659 149.75V191.5M448.659 149.75H487.636M448.659 191.5V233.25M448.659 191.5H487.636M448.659 233.25V275M448.659 233.25H487.636M448.659 275V316.75M448.659 275H487.636M448.659 316.75V358.5M448.659 316.75H487.636M448.659 358.5V400.25M448.659 358.5H487.636M448.659 400.25V442M448.659 400.25H487.636M448.659 442V483.75M448.659 442H487.636M448.659 483.75V525.5M448.659 483.75H487.636M448.659 525.5V567.25M448.659 525.5H487.636M448.659 567.25V609M448.659 567.25H487.636M448.659 609V650.75M448.659 609H487.636M448.659 650.75V692.5M448.659 650.75H487.636M448.659 692.5V734.25M448.659 692.5H487.636M448.659 734.25V776M448.659 734.25H487.636M448.659 776V817.75M448.659 776H487.636M448.659 817.75V859.5M448.659 817.75H487.636M448.659 859.5V901.25M448.659 859.5H487.636M448.659 901.25V943M448.659 901.25H487.636M448.659 943H487.636M487.636 108V149.75M487.636 108H526.614M487.636 149.75V191.5M487.636 149.75H526.614M487.636 191.5V233.25M487.636 191.5H526.614M487.636 233.25V275M487.636 233.25H526.614M487.636 275V316.75M487.636 275H526.614M487.636 316.75V358.5M487.636 316.75H526.614M487.636 358.5V400.25M487.636 358.5H526.614M487.636 400.25V442M487.636 400.25H526.614M487.636 442V483.75M487.636 442H526.614M487.636 483.75V525.5M487.636 483.75H526.614M487.636 525.5V567.25M487.636 525.5H526.614M487.636 567.25V609M487.636 567.25H526.614M487.636 609V650.75M487.636 609H526.614M487.636 650.75V692.5M487.636 650.75H526.614M487.636 692.5V734.25M487.636 692.5H526.614M487.636 734.25V776M487.636 734.25H526.614M487.636 776V817.75M487.636 776H526.614M487.636 817.75V859.5M487.636 817.75H526.614M487.636 859.5V901.25M487.636 859.5H526.614M487.636 901.25V943M487.636 901.25H526.614M487.636 943H526.614M526.614 108V149.75M526.614 108H565.591M526.614 149.75V191.5M526.614 149.75H565.591M526.614 191.5V233.25M526.614 191.5H565.591M526.614 233.25V275M526.614 233.25H565.591M526.614 275V316.75M526.614 275H565.591M526.614 316.75V358.5M526.614 316.75H565.591M526.614 358.5V400.25M526.614 358.5H565.591M526.614 400.25V442M526.614 400.25H565.591M526.614 442V483.75M526.614 442H565.591M526.614 483.75V525.5M526.614 483.75H565.591M526.614 525.5V567.25M526.614 525.5H565.591M526.614 567.25V609M526.614 567.25H565.591M526.614 609V650.75M526.614 609H565.591M526.614 650.75V692.5M526.614 650.75H565.591M526.614 692.5V734.25M526.614 692.5H565.591M526.614 734.25V776M526.614 734.25H565.591M526.614 776V817.75M526.614 776H565.591M526.614 817.75V859.5M526.614 817.75H565.591M526.614 859.5V901.25M526.614 859.5H565.591M526.614 901.25V943M526.614 901.25H565.591M526.614 943H565.591M565.591 108V149.75M565.591 108H604.568M565.591 149.75V191.5M565.591 149.75H604.568M565.591 191.5V233.25M565.591 191.5H604.568M565.591 233.25V275M565.591 233.25H604.568M565.591 275V316.75M565.591 275H604.568M565.591 316.75V358.5M565.591 316.75H604.568M565.591 358.5V400.25M565.591 358.5H604.568M565.591 400.25V442M565.591 400.25H604.568M565.591 442V483.75M565.591 442H604.568M565.591 483.75V525.5M565.591 483.75H604.568M565.591 525.5V567.25M565.591 525.5H604.568M565.591 567.25V609M565.591 567.25H604.568M565.591 609V650.75M565.591 609H604.568M565.591 650.75V692.5M565.591 650.75H604.568M565.591 692.5V734.25M565.591 692.5H604.568M565.591 734.25V776M565.591 734.25H604.568M565.591 776V817.75M565.591 776H604.568M565.591 817.75V859.5M565.591 817.75H604.568M565.591 859.5V901.25M565.591 859.5H604.568M565.591 901.25V943M565.591 901.25H604.568M565.591 943H604.568M604.568 108V149.75M604.568 108H643.545M604.568 149.75V191.5M604.568 149.75H643.545M604.568 191.5V233.25M604.568 191.5H643.545M604.568 233.25V275M604.568 233.25H643.545M604.568 275V316.75M604.568 275H643.545M604.568 316.75V358.5M604.568 316.75H643.545M604.568 358.5V400.25M604.568 358.5H643.545M604.568 400.25V442M604.568 400.25H643.545M604.568 442V483.75M604.568 442H643.545M604.568 483.75V525.5M604.568 483.75H643.545M604.568 525.5V567.25M604.568 525.5H643.545M604.568 567.25V609M604.568 567.25H643.545M604.568 609V650.75M604.568 609H643.545M604.568 650.75V692.5M604.568 650.75H643.545M604.568 692.5V734.25M604.568 692.5H643.545M604.568 734.25V776M604.568 734.25H643.545M604.568 776V817.75M604.568 776H643.545M604.568 817.75V859.5M604.568 817.75H643.545M604.568 859.5V901.25M604.568 859.5H643.545M604.568 901.25V943M604.568 901.25H643.545M604.568 943H643.545M643.545 108V149.75M643.545 108H682.523M643.545 149.75V191.5M643.545 149.75H682.523M643.545 191.5V233.25M643.545 191.5H682.523M643.545 233.25V275M643.545 233.25H682.523M643.545 275V316.75M643.545 275H682.523M643.545 316.75V358.5M643.545 316.75H682.523M643.545 358.5V400.25M643.545 358.5H682.523M643.545 400.25V442M643.545 400.25H682.523M643.545 442V483.75M643.545 442H682.523M643.545 483.75V525.5M643.545 483.75H682.523M643.545 525.5V567.25M643.545 525.5H682.523M643.545 567.25V609M643.545 567.25H682.523M643.545 609V650.75M643.545 609H682.523M643.545 650.75V692.5M643.545 650.75H682.523M643.545 692.5V734.25M643.545 692.5H682.523M643.545 734.25V776M643.545 734.25H682.523M643.545 776V817.75M643.545 776H682.523M643.545 817.75V859.5M643.545 817.75H682.523M643.545 859.5V901.25M643.545 859.5H682.523M643.545 901.25V943M643.545 901.25H682.523M643.545 943H682.523M682.523 108V149.75M682.523 108H721.5M682.523 149.75V191.5M682.523 149.75H721.5M682.523 191.5V233.25M682.523 191.5H721.5M682.523 233.25V275M682.523 233.25H721.5M682.523 275V316.75M682.523 275H721.5M682.523 316.75V358.5M682.523 316.75H721.5M682.523 358.5V400.25M682.523 358.5H721.5M682.523 400.25V442M682.523 400.25H721.5M682.523 442V483.75M682.523 442H721.5M682.523 483.75V525.5M682.523 483.75H721.5M682.523 525.5V567.25M682.523 525.5H721.5M682.523 567.25V609M682.523 567.25H721.5M682.523 609V650.75M682.523 609H721.5M682.523 650.75V692.5M682.523 650.75H721.5M682.523 692.5V734.25M682.523 692.5H721.5M682.523 734.25V776M682.523 734.25H721.5M682.523 776V817.75M682.523 776H721.5M682.523 817.75V859.5M682.523 817.75H721.5M682.523 859.5V901.25M682.523 859.5H721.5M682.523 901.25V943M682.523 901.25H721.5M682.523 943H721.5M721.5 108V149.75M721.5 108H760.477M721.5 149.75V191.5M721.5 149.75H760.477M721.5 191.5V233.25M721.5 191.5H760.477M721.5 233.25V275M721.5 233.25H760.477M721.5 275V316.75M721.5 275H760.477M721.5 316.75V358.5M721.5 316.75H760.477M721.5 358.5V400.25M721.5 358.5H760.477M721.5 400.25V442M721.5 400.25H760.477M721.5 442V483.75M721.5 442H760.477M721.5 483.75V525.5M721.5 483.75H760.477M721.5 525.5V567.25M721.5 525.5H760.477M721.5 567.25V609M721.5 567.25H760.477M721.5 609V650.75M721.5 609H760.477M721.5 650.75V692.5M721.5 650.75H760.477M721.5 692.5V734.25M721.5 692.5H760.477M721.5 734.25V776M721.5 734.25H760.477M721.5 776V817.75M721.5 776H760.477M721.5 817.75V859.5M721.5 817.75H760.477M721.5 859.5V901.25M721.5 859.5H760.477M721.5 901.25V943M721.5 901.25H760.477M721.5 943H760.477M760.477 108V149.75M760.477 108H799.455M760.477 149.75V191.5M760.477 149.75H799.455M760.477 191.5V233.25M760.477 191.5H799.455M760.477 233.25V275M760.477 233.25H799.455M760.477 275V316.75M760.477 275H799.455M760.477 316.75V358.5M760.477 316.75H799.455M760.477 358.5V400.25M760.477 358.5H799.455M760.477 400.25V442M760.477 400.25H799.455M760.477 442V483.75M760.477 442H799.455M760.477 483.75V525.5M760.477 483.75H799.455M760.477 525.5V567.25M760.477 525.5H799.455M760.477 567.25V609M760.477 567.25H799.455M760.477 609V650.75M760.477 609H799.455M760.477 650.75V692.5M760.477 650.75H799.455M760.477 692.5V734.25M760.477 692.5H799.455M760.477 734.25V776M760.477 734.25H799.455M760.477 776V817.75M760.477 776H799.455M760.477 817.75V859.5M760.477 817.75H799.455M760.477 859.5V901.25M760.477 859.5H799.455M760.477 901.25V943M760.477 901.25H799.455M760.477 943H799.455M799.455 108V149.75M799.455 108H838.432M799.455 149.75V191.5M799.455 149.75H838.432M799.455 191.5V233.25M799.455 191.5H838.432M799.455 233.25V275M799.455 233.25H838.432M799.455 275V316.75M799.455 275H838.432M799.455 316.75V358.5M799.455 316.75H838.432M799.455 358.5V400.25M799.455 358.5H838.432M799.455 400.25V442M799.455 400.25H838.432M799.455 442V483.75M799.455 442H838.432M799.455 483.75V525.5M799.455 483.75H838.432M799.455 525.5V567.25M799.455 525.5H838.432M799.455 567.25V609M799.455 567.25H838.432M799.455 609V650.75M799.455 609H838.432M799.455 650.75V692.5M799.455 650.75H838.432M799.455 692.5V734.25M799.455 692.5H838.432M799.455 734.25V776M799.455 734.25H838.432M799.455 776V817.75M799.455 776H838.432M799.455 817.75V859.5M799.455 817.75H838.432M799.455 859.5V901.25M799.455 859.5H838.432M799.455 901.25V943M799.455 901.25H838.432M799.455 943H838.432M838.432 108V149.75M838.432 108H877.409M838.432 149.75V191.5M838.432 149.75H877.409M838.432 191.5V233.25M838.432 191.5H877.409M838.432 233.25V275M838.432 233.25H877.409M838.432 275V316.75M838.432 275H877.409M838.432 316.75V358.5M838.432 316.75H877.409M838.432 358.5V400.25M838.432 358.5H877.409M838.432 400.25V442M838.432 400.25H877.409M838.432 442V483.75M838.432 442H877.409M838.432 483.75V525.5M838.432 483.75H877.409M838.432 525.5V567.25M838.432 525.5H877.409M838.432 567.25V609M838.432 567.25H877.409M838.432 609V650.75M838.432 609H877.409M838.432 650.75V692.5M838.432 650.75H877.409M838.432 692.5V734.25M838.432 692.5H877.409M838.432 734.25V776M838.432 734.25H877.409M838.432 776V817.75M838.432 776H877.409M838.432 817.75V859.5M838.432 817.75H877.409M838.432 859.5V901.25M838.432 859.5H877.409M838.432 901.25V943M838.432 901.25H877.409M838.432 943H877.409M877.409 108V149.75M877.409 108H916.386M877.409 149.75V191.5M877.409 149.75H916.386M877.409 191.5V233.25M877.409 191.5H916.386M877.409 233.25V275M877.409 233.25H916.386M877.409 275V316.75M877.409 275H916.386M877.409 316.75V358.5M877.409 316.75H916.386M877.409 358.5V400.25M877.409 358.5H916.386M877.409 400.25V442M877.409 400.25H916.386M877.409 442V483.75M877.409 442H916.386M877.409 483.75V525.5M877.409 483.75H916.386M877.409 525.5V567.25M877.409 525.5H916.386M877.409 567.25V609M877.409 567.25H916.386M877.409 609V650.75M877.409 609H916.386M877.409 650.75V692.5M877.409 650.75H916.386M877.409 692.5V734.25M877.409 692.5H916.386M877.409 734.25V776M877.409 734.25H916.386M877.409 776V817.75M877.409 776H916.386M877.409 817.75V859.5M877.409 817.75H916.386M877.409 859.5V901.25M877.409 859.5H916.386M877.409 901.25V943M877.409 901.25H916.386M877.409 943H916.386M916.386 108V149.75M916.386 108H955.364M916.386 149.75V191.5M916.386 149.75H955.364M916.386 191.5V233.25M916.386 191.5H955.364M916.386 233.25V275M916.386 233.25H955.364M916.386 275V316.75M916.386 275H955.364M916.386 316.75V358.5M916.386 316.75H955.364M916.386 358.5V400.25M916.386 358.5H955.364M916.386 400.25V442M916.386 400.25H955.364M916.386 442V483.75M916.386 442H955.364M916.386 483.75V525.5M916.386 483.75H955.364M916.386 525.5V567.25M916.386 525.5H955.364M916.386 567.25V609M916.386 567.25H955.364M916.386 609V650.75M916.386 609H955.364M916.386 650.75V692.5M916.386 650.75H955.364M916.386 692.5V734.25M916.386 692.5H955.364M916.386 734.25V776M916.386 734.25H955.364M916.386 776V817.75M916.386 776H955.364M916.386 817.75V859.5M916.386 817.75H955.364M916.386 859.5V901.25M916.386 859.5H955.364M916.386 901.25V943M916.386 901.25H955.364M916.386 943H955.364M955.364 108V149.75M955.364 108H994.341M955.364 149.75V191.5M955.364 149.75H994.341M955.364 191.5V233.25M955.364 191.5H994.341M955.364 233.25V275M955.364 233.25H994.341M955.364 275V316.75M955.364 275H994.341M955.364 316.75V358.5M955.364 316.75H994.341M955.364 358.5V400.25M955.364 358.5H994.341M955.364 400.25V442M955.364 400.25H994.341M955.364 442V483.75M955.364 442H994.341M955.364 483.75V525.5M955.364 483.75H994.341M955.364 525.5V567.25M955.364 525.5H994.341M955.364 567.25V609M955.364 567.25H994.341M955.364 609V650.75M955.364 609H994.341M955.364 650.75V692.5M955.364 650.75H994.341M955.364 692.5V734.25M955.364 692.5H994.341M955.364 734.25V776M955.364 734.25H994.341M955.364 776V817.75M955.364 776H994.341M955.364 817.75V859.5M955.364 817.75H994.341M955.364 859.5V901.25M955.364 859.5H994.341M955.364 901.25V943M955.364 901.25H994.341M955.364 943H994.341M994.341 108V149.75M994.341 108H1033.32M994.341 149.75V191.5M994.341 149.75H1033.32M994.341 191.5V233.25M994.341 191.5H1033.32M994.341 233.25V275M994.341 233.25H1033.32M994.341 275V316.75M994.341 275H1033.32M994.341 316.75V358.5M994.341 316.75H1033.32M994.341 358.5V400.25M994.341 358.5H1033.32M994.341 400.25V442M994.341 400.25H1033.32M994.341 442V483.75M994.341 442H1033.32M994.341 483.75V525.5M994.341 483.75H1033.32M994.341 525.5V567.25M994.341 525.5H1033.32M994.341 567.25V609M994.341 567.25H1033.32M994.341 609V650.75M994.341 609H1033.32M994.341 650.75V692.5M994.341 650.75H1033.32M994.341 692.5V734.25M994.341 692.5H1033.32M994.341 734.25V776M994.341 734.25H1033.32M994.341 776V817.75M994.341 776H1033.32M994.341 817.75V859.5M994.341 817.75H1033.32M994.341 859.5V901.25M994.341 859.5H1033.32M994.341 901.25V943M994.341 901.25H1033.32M994.341 943H1033.32M1033.32 108V149.75M1033.32 108H1072.3M1033.32 149.75V191.5M1033.32 149.75H1072.3M1033.32 191.5V233.25M1033.32 191.5H1072.3M1033.32 233.25V275M1033.32 233.25H1072.3M1033.32 275V316.75M1033.32 275H1072.3M1033.32 316.75V358.5M1033.32 316.75H1072.3M1033.32 358.5V400.25M1033.32 358.5H1072.3M1033.32 400.25V442M1033.32 400.25H1072.3M1033.32 442V483.75M1033.32 442H1072.3M1033.32 483.75V525.5M1033.32 483.75H1072.3M1033.32 525.5V567.25M1033.32 525.5H1072.3M1033.32 567.25V609M1033.32 567.25H1072.3M1033.32 609V650.75M1033.32 609H1072.3M1033.32 650.75V692.5M1033.32 650.75H1072.3M1033.32 692.5V734.25M1033.32 692.5H1072.3M1033.32 734.25V776M1033.32 734.25H1072.3M1033.32 776V817.75M1033.32 776H1072.3M1033.32 817.75V859.5M1033.32 817.75H1072.3M1033.32 859.5V901.25M1033.32 859.5H1072.3M1033.32 901.25V943M1033.32 901.25H1072.3M1033.32 943H1072.3M1072.3 108V149.75M1072.3 108H1111.27M1072.3 149.75V191.5M1072.3 149.75H1111.27M1072.3 191.5V233.25M1072.3 191.5H1111.27M1072.3 233.25V275M1072.3 233.25H1111.27M1072.3 275V316.75M1072.3 275H1111.27M1072.3 316.75V358.5M1072.3 316.75H1111.27M1072.3 358.5V400.25M1072.3 358.5H1111.27M1072.3 400.25V442M1072.3 400.25H1111.27M1072.3 442V483.75M1072.3 442H1111.27M1072.3 483.75V525.5M1072.3 483.75H1111.27M1072.3 525.5V567.25M1072.3 525.5H1111.27M1072.3 567.25V609M1072.3 567.25H1111.27M1072.3 609V650.75M1072.3 609H1111.27M1072.3 650.75V692.5M1072.3 650.75H1111.27M1072.3 692.5V734.25M1072.3 692.5H1111.27M1072.3 734.25V776M1072.3 734.25H1111.27M1072.3 776V817.75M1072.3 776H1111.27M1072.3 817.75V859.5M1072.3 817.75H1111.27M1072.3 859.5V901.25M1072.3 859.5H1111.27M1072.3 901.25V943M1072.3 901.25H1111.27M1072.3 943H1111.27M1111.27 108V149.75M1111.27 108H1150.25M1111.27 149.75V191.5M1111.27 149.75H1150.25M1111.27 191.5V233.25M1111.27 191.5H1150.25M1111.27 233.25V275M1111.27 233.25H1150.25M1111.27 275V316.75M1111.27 275H1150.25M1111.27 316.75V358.5M1111.27 316.75H1150.25M1111.27 358.5V400.25M1111.27 358.5H1150.25M1111.27 400.25V442M1111.27 400.25H1150.25M1111.27 442V483.75M1111.27 442H1150.25M1111.27 483.75V525.5M1111.27 483.75H1150.25M1111.27 525.5V567.25M1111.27 525.5H1150.25M1111.27 567.25V609M1111.27 567.25H1150.25M1111.27 609V650.75M1111.27 609H1150.25M1111.27 650.75V692.5M1111.27 650.75H1150.25M1111.27 692.5V734.25M1111.27 692.5H1150.25M1111.27 734.25V776M1111.27 734.25H1150.25M1111.27 776V817.75M1111.27 776H1150.25M1111.27 817.75V859.5M1111.27 817.75H1150.25M1111.27 859.5V901.25M1111.27 859.5H1150.25M1111.27 901.25V943M1111.27 901.25H1150.25M1111.27 943H1150.25M1150.25 108V149.75M1150.25 108H1189.23M1150.25 149.75V191.5M1150.25 149.75H1189.23M1150.25 191.5V233.25M1150.25 191.5H1189.23M1150.25 233.25V275M1150.25 233.25H1189.23M1150.25 275V316.75M1150.25 275H1189.23M1150.25 316.75V358.5M1150.25 316.75H1189.23M1150.25 358.5V400.25M1150.25 358.5H1189.23M1150.25 400.25V442M1150.25 400.25H1189.23M1150.25 442V483.75M1150.25 442H1189.23M1150.25 483.75V525.5M1150.25 483.75H1189.23M1150.25 525.5V567.25M1150.25 525.5H1189.23M1150.25 567.25V609M1150.25 567.25H1189.23M1150.25 609V650.75M1150.25 609H1189.23M1150.25 650.75V692.5M1150.25 650.75H1189.23M1150.25 692.5V734.25M1150.25 692.5H1189.23M1150.25 734.25V776M1150.25 734.25H1189.23M1150.25 776V817.75M1150.25 776H1189.23M1150.25 817.75V859.5M1150.25 817.75H1189.23M1150.25 859.5V901.25M1150.25 859.5H1189.23M1150.25 901.25V943M1150.25 901.25H1189.23M1150.25 943H1189.23M1189.23 108V149.75M1189.23 108H1228.2M1189.23 149.75V191.5M1189.23 149.75H1228.2M1189.23 191.5V233.25M1189.23 191.5H1228.2M1189.23 233.25V275M1189.23 233.25H1228.2M1189.23 275V316.75M1189.23 275H1228.2M1189.23 316.75V358.5M1189.23 316.75H1228.2M1189.23 358.5V400.25M1189.23 358.5H1228.2M1189.23 400.25V442M1189.23 400.25H1228.2M1189.23 442V483.75M1189.23 442H1228.2M1189.23 483.75V525.5M1189.23 483.75H1228.2M1189.23 525.5V567.25M1189.23 525.5H1228.2M1189.23 567.25V609M1189.23 567.25H1228.2M1189.23 609V650.75M1189.23 609H1228.2M1189.23 650.75V692.5M1189.23 650.75H1228.2M1189.23 692.5V734.25M1189.23 692.5H1228.2M1189.23 734.25V776M1189.23 734.25H1228.2M1189.23 776V817.75M1189.23 776H1228.2M1189.23 817.75V859.5M1189.23 817.75H1228.2M1189.23 859.5V901.25M1189.23 859.5H1228.2M1189.23 901.25V943M1189.23 901.25H1228.2M1189.23 943H1228.2M1228.2 108V149.75M1228.2 108H1267.18M1228.2 149.75V191.5M1228.2 149.75H1267.18M1228.2 191.5V233.25M1228.2 191.5H1267.18M1228.2 233.25V275M1228.2 233.25H1267.18M1228.2 275V316.75M1228.2 275H1267.18M1228.2 316.75V358.5M1228.2 316.75H1267.18M1228.2 358.5V400.25M1228.2 358.5H1267.18M1228.2 400.25V442M1228.2 400.25H1267.18M1228.2 442V483.75M1228.2 442H1267.18M1228.2 483.75V525.5M1228.2 483.75H1267.18M1228.2 525.5V567.25M1228.2 525.5H1267.18M1228.2 567.25V609M1228.2 567.25H1267.18M1228.2 609V650.75M1228.2 609H1267.18M1228.2 650.75V692.5M1228.2 650.75H1267.18M1228.2 692.5V734.25M1228.2 692.5H1267.18M1228.2 734.25V776M1228.2 734.25H1267.18M1228.2 776V817.75M1228.2 776H1267.18M1228.2 817.75V859.5M1228.2 817.75H1267.18M1228.2 859.5V901.25M1228.2 859.5H1267.18M1228.2 901.25V943M1228.2 901.25H1267.18M1228.2 943H1267.18M1267.18 108V149.75M1267.18 108H1306.16M1267.18 149.75V191.5M1267.18 149.75H1306.16M1267.18 191.5V233.25M1267.18 191.5H1306.16M1267.18 233.25V275M1267.18 233.25H1306.16M1267.18 275V316.75M1267.18 275H1306.16M1267.18 316.75V358.5M1267.18 316.75H1306.16M1267.18 358.5V400.25M1267.18 358.5H1306.16M1267.18 400.25V442M1267.18 400.25H1306.16M1267.18 442V483.75M1267.18 442H1306.16M1267.18 483.75V525.5M1267.18 483.75H1306.16M1267.18 525.5V567.25M1267.18 525.5H1306.16M1267.18 567.25V609M1267.18 567.25H1306.16M1267.18 609V650.75M1267.18 609H1306.16M1267.18 650.75V692.5M1267.18 650.75H1306.16M1267.18 692.5V734.25M1267.18 692.5H1306.16M1267.18 734.25V776M1267.18 734.25H1306.16M1267.18 776V817.75M1267.18 776H1306.16M1267.18 817.75V859.5M1267.18 817.75H1306.16M1267.18 859.5V901.25M1267.18 859.5H1306.16M1267.18 901.25V943M1267.18 901.25H1306.16M1267.18 943H1306.16M1306.16 108V149.75M1306.16 108H1345.14M1306.16 149.75V191.5M1306.16 149.75H1345.14M1306.16 191.5V233.25M1306.16 191.5H1345.14M1306.16 233.25V275M1306.16 233.25H1345.14M1306.16 275V316.75M1306.16 275H1345.14M1306.16 316.75V358.5M1306.16 316.75H1345.14M1306.16 358.5V400.25M1306.16 358.5H1345.14M1306.16 400.25V442M1306.16 400.25H1345.14M1306.16 442V483.75M1306.16 442H1345.14M1306.16 483.75V525.5M1306.16 483.75H1345.14M1306.16 525.5V567.25M1306.16 525.5H1345.14M1306.16 567.25V609M1306.16 567.25H1345.14M1306.16 609V650.75M1306.16 609H1345.14M1306.16 650.75V692.5M1306.16 650.75H1345.14M1306.16 692.5V734.25M1306.16 692.5H1345.14M1306.16 734.25V776M1306.16 734.25H1345.14M1306.16 776V817.75M1306.16 776H1345.14M1306.16 817.75V859.5M1306.16 817.75H1345.14M1306.16 859.5V901.25M1306.16 859.5H1345.14M1306.16 901.25V943M1306.16 901.25H1345.14M1306.16 943H1345.14M1345.14 108V149.75M1345.14 108H1384.11M1345.14 149.75V191.5M1345.14 149.75H1384.11M1345.14 191.5V233.25M1345.14 191.5H1384.11M1345.14 233.25V275M1345.14 233.25H1384.11M1345.14 275V316.75M1345.14 275H1384.11M1345.14 316.75V358.5M1345.14 316.75H1384.11M1345.14 358.5V400.25M1345.14 358.5H1384.11M1345.14 400.25V442M1345.14 400.25H1384.11M1345.14 442V483.75M1345.14 442H1384.11M1345.14 483.75V525.5M1345.14 483.75H1384.11M1345.14 525.5V567.25M1345.14 525.5H1384.11M1345.14 567.25V609M1345.14 567.25H1384.11M1345.14 609V650.75M1345.14 609H1384.11M1345.14 650.75V692.5M1345.14 650.75H1384.11M1345.14 692.5V734.25M1345.14 692.5H1384.11M1345.14 734.25V776M1345.14 734.25H1384.11M1345.14 776V817.75M1345.14 776H1384.11M1345.14 817.75V859.5M1345.14 817.75H1384.11M1345.14 859.5V901.25M1345.14 859.5H1384.11M1345.14 901.25V943M1345.14 901.25H1384.11M1345.14 943H1384.11M1384.11 108V149.75M1384.11 108H1423.09M1384.11 149.75V191.5M1384.11 149.75H1423.09M1384.11 191.5V233.25M1384.11 191.5H1423.09M1384.11 233.25V275M1384.11 233.25H1423.09M1384.11 275V316.75M1384.11 275H1423.09M1384.11 316.75V358.5M1384.11 316.75H1423.09M1384.11 358.5V400.25M1384.11 358.5H1423.09M1384.11 400.25V442M1384.11 400.25H1423.09M1384.11 442V483.75M1384.11 442H1423.09M1384.11 483.75V525.5M1384.11 483.75H1423.09M1384.11 525.5V567.25M1384.11 525.5H1423.09M1384.11 567.25V609M1384.11 567.25H1423.09M1384.11 609V650.75M1384.11 609H1423.09M1384.11 650.75V692.5M1384.11 650.75H1423.09M1384.11 692.5V734.25M1384.11 692.5H1423.09M1384.11 734.25V776M1384.11 734.25H1423.09M1384.11 776V817.75M1384.11 776H1423.09M1384.11 817.75V859.5M1384.11 817.75H1423.09M1384.11 859.5V901.25M1384.11 859.5H1423.09M1384.11 901.25V943M1384.11 901.25H1423.09M1384.11 943H1423.09M1423.09 108V149.75M1423.09 108H1462.07M1423.09 149.75V191.5M1423.09 149.75H1462.07M1423.09 191.5V233.25M1423.09 191.5H1462.07M1423.09 233.25V275M1423.09 233.25H1462.07M1423.09 275V316.75M1423.09 275H1462.07M1423.09 316.75V358.5M1423.09 316.75H1462.07M1423.09 358.5V400.25M1423.09 358.5H1462.07M1423.09 400.25V442M1423.09 400.25H1462.07M1423.09 442V483.75M1423.09 442H1462.07M1423.09 483.75V525.5M1423.09 483.75H1462.07M1423.09 525.5V567.25M1423.09 525.5H1462.07M1423.09 567.25V609M1423.09 567.25H1462.07M1423.09 609V650.75M1423.09 609H1462.07M1423.09 650.75V692.5M1423.09 650.75H1462.07M1423.09 692.5V734.25M1423.09 692.5H1462.07M1423.09 734.25V776M1423.09 734.25H1462.07M1423.09 776V817.75M1423.09 776H1462.07M1423.09 817.75V859.5M1423.09 817.75H1462.07M1423.09 859.5V901.25M1423.09 859.5H1462.07M1423.09 901.25V943M1423.09 901.25H1462.07M1423.09 943H1462.07M1462.07 108V149.75M1462.07 108H1501.05M1462.07 149.75V191.5M1462.07 149.75H1501.05M1462.07 191.5V233.25M1462.07 191.5H1501.05M1462.07 233.25V275M1462.07 233.25H1501.05M1462.07 275V316.75M1462.07 275H1501.05M1462.07 316.75V358.5M1462.07 316.75H1501.05M1462.07 358.5V400.25M1462.07 358.5H1501.05M1462.07 400.25V442M1462.07 400.25H1501.05M1462.07 442V483.75M1462.07 442H1501.05M1462.07 483.75V525.5M1462.07 483.75H1501.05M1462.07 525.5V567.25M1462.07 525.5H1501.05M1462.07 567.25V609M1462.07 567.25H1501.05M1462.07 609V650.75M1462.07 609H1501.05M1462.07 650.75V692.5M1462.07 650.75H1501.05M1462.07 692.5V734.25M1462.07 692.5H1501.05M1462.07 734.25V776M1462.07 734.25H1501.05M1462.07 776V817.75M1462.07 776H1501.05M1462.07 817.75V859.5M1462.07 817.75H1501.05M1462.07 859.5V901.25M1462.07 859.5H1501.05M1462.07 901.25V943M1462.07 901.25H1501.05M1462.07 943H1501.05M1501.05 108V149.75M1501.05 108H1540.02M1501.05 149.75V191.5M1501.05 149.75H1540.02M1501.05 191.5V233.25M1501.05 191.5H1540.02M1501.05 233.25V275M1501.05 233.25H1540.02M1501.05 275V316.75M1501.05 275H1540.02M1501.05 316.75V358.5M1501.05 316.75H1540.02M1501.05 358.5V400.25M1501.05 358.5H1540.02M1501.05 400.25V442M1501.05 400.25H1540.02M1501.05 442V483.75M1501.05 442H1540.02M1501.05 483.75V525.5M1501.05 483.75H1540.02M1501.05 525.5V567.25M1501.05 525.5H1540.02M1501.05 567.25V609M1501.05 567.25H1540.02M1501.05 609V650.75M1501.05 609H1540.02M1501.05 650.75V692.5M1501.05 650.75H1540.02M1501.05 692.5V734.25M1501.05 692.5H1540.02M1501.05 734.25V776M1501.05 734.25H1540.02M1501.05 776V817.75M1501.05 776H1540.02M1501.05 817.75V859.5M1501.05 817.75H1540.02M1501.05 859.5V901.25M1501.05 859.5H1540.02M1501.05 901.25V943M1501.05 901.25H1540.02M1501.05 943H1540.02M1540.02 108V149.75M1540.02 108H1579V149.75M1540.02 149.75V191.5M1540.02 149.75H1579M1540.02 191.5V233.25M1540.02 191.5H1579M1540.02 233.25V275M1540.02 233.25H1579M1540.02 275V316.75M1540.02 275H1579M1540.02 316.75V358.5M1540.02 316.75H1579M1540.02 358.5V400.25M1540.02 358.5H1579M1540.02 400.25V442M1540.02 400.25H1579M1540.02 442V483.75M1540.02 442H1579M1540.02 483.75V525.5M1540.02 483.75H1579M1540.02 525.5V567.25M1540.02 525.5H1579M1540.02 567.25V609M1540.02 567.25H1579M1540.02 609V650.75M1540.02 609H1579M1540.02 650.75V692.5M1540.02 650.75H1579M1540.02 692.5V734.25M1540.02 692.5H1579M1540.02 734.25V776M1540.02 734.25H1579M1540.02 776V817.75M1540.02 776H1579M1540.02 817.75V859.5M1540.02 817.75H1579M1540.02 859.5V901.25M1540.02 859.5H1579M1540.02 901.25V943M1540.02 901.25H1579M1540.02 943H1579V901.25M1579 149.75V191.5M1579 191.5V233.25M1579 233.25V275M1579 275V316.75M1579 316.75V358.5M1579 358.5V400.25M1579 400.25V442M1579 442V483.75M1579 483.75V525.5M1579 525.5V567.25M1579 567.25V609M1579 609V650.75M1579 650.75V692.5M1579 692.5V734.25M1579 734.25V776M1579 776V817.75M1579 817.75V859.5M1579 859.5V901.25" stroke="url(#paint1_radial_200_810)" stroke-opacity="0.6" stroke-width="0.805493"/>
</g>
<defs>
<radialGradient id="paint0_radial_200_810" cx="0" cy="0" r="1" gradientUnits="userSpaceOnUse" gradientTransform="translate(721.5 525.5) rotate(90) scale(525.5 719.5)">
<stop stop-color="#CED2E9"/>
<stop offset="0.41" stop-color="#CED2E9"/>
<stop offset="1" stop-color="white"/>
</radialGradient>
<radialGradient id="paint1_radial_200_810" cx="0" cy="0" r="1" gradientUnits="userSpaceOnUse" gradientTransform="translate(721.5 525.5) rotate(90) scale(417.5 857.5)">
<stop stop-color="#CED2E9"/>
<stop offset="0.41" stop-color="#CED2E9"/>
<stop offset="1" stop-color="white"/>
</radialGradient>
</defs>
</svg>
