<svg width="1358" height="800" viewBox="0 0 1358 800" fill="none" xmlns="http://www.w3.org/2000/svg">
<g clip-path="url(#clip0_9277_1697)">
<g filter="url(#filter0_f_9277_1697)">
<rect x="878.729" y="524.886" width="191.226" height="173.174" rx="70" transform="rotate(-90.2187 878.729 524.886)" fill="#9CCED3"/>
</g>
<g filter="url(#filter1_f_9277_1697)">
<rect x="242.125" y="561.9" width="99.4003" height="224.68" transform="rotate(-90 242.125 561.9)" fill="#6DB2E3"/>
</g>
<path fill-rule="evenodd" clip-rule="evenodd" d="M975.987 37.3462L1074.65 37.3462L1074.65 135.894L986.209 135.894L975.987 125.685L975.987 37.3462ZM965.492 135.894L975.582 125.816L975.582 37.3462L876.915 37.3462L876.915 135.894L965.492 135.894ZM975.582 146.226L965.642 136.298L876.915 136.298L876.915 234.846L975.582 234.846L975.582 146.226ZM986.058 136.298L975.987 146.358L975.987 234.846L1074.65 234.846L1074.65 136.298L986.058 136.298ZM1075 37L1075 135.952L1075 136.24L1075 234.904L1075 235.192L1075 333.856L1075 334.144L1075 432.808L1075 433.096L1075 531.76L1075 532.048L1075 631L975.929 631L975.64 631L876.858 631L876.569 631L777.787 631L777.498 631L678.716 631L678.427 631L579.645 631L579.356 631L480.574 631L480.285 631L381.502 631L381.214 631L282.432 631L282.142 631L183.36 631L183.072 631L84.0004 631L84.0001 532.048L84.0001 433.096L84.0001 432.808L84.0001 333.856L84.0001 235.192L84.0001 136.24L84.0001 135.952L84.0001 37L183.072 37L183.36 37L282.142 37L282.432 37L381.214 37L381.502 37L480.285 37L480.574 37L579.356 37L579.645 37L678.427 37L678.716 37L777.498 37L777.787 37L876.569 37L876.858 37L975.64 37L975.929 37L1075 37ZM876.511 37.3462L777.845 37.3462L777.845 135.894L876.511 135.894L876.511 37.3462ZM678.773 37.3462L777.44 37.3462L777.44 135.894L678.773 135.894L678.773 37.3462ZM678.369 37.3462L579.702 37.3462L579.702 135.894L678.369 135.894L678.369 37.3462ZM480.631 37.3462L579.298 37.3462L579.298 135.894L480.631 135.894L480.631 37.3462ZM480.227 37.3462L381.56 37.3462L381.56 135.894L480.227 135.894L480.227 37.3462ZM282.489 37.3462L381.156 37.3462L381.156 135.894L282.489 135.894L282.489 37.3462ZM282.085 37.3462L183.418 37.3462L183.418 135.894L282.085 135.894L282.085 37.3462ZM84.3467 37.3462L183.013 37.3462L183.013 135.894L84.3467 135.894L84.3467 37.3462ZM876.511 136.298L777.845 136.298L777.845 234.846L876.511 234.846L876.511 136.298ZM678.773 136.298L777.44 136.298L777.44 234.846L688.698 234.846L678.773 224.934L678.773 136.298ZM668.603 234.846L678.369 225.092L678.369 136.298L579.702 136.298L579.702 234.846L668.603 234.846ZM678.369 245.475L668.165 235.284L668.199 235.25L579.702 235.25L579.702 333.798L678.369 333.798L678.369 245.475ZM689.102 235.25L689.136 235.284L678.773 245.634L678.773 333.798L777.44 333.798L777.44 235.25L689.102 235.25ZM480.631 136.298L579.298 136.298L579.298 234.846L480.631 234.846L480.631 136.298ZM480.227 136.298L381.56 136.298L381.56 234.846L480.227 234.846L480.227 136.298ZM282.489 136.298L381.156 136.298L381.156 234.846L282.489 234.846L282.489 136.298ZM282.085 136.298L183.418 136.298L183.418 207.506L183.586 207.673L210.791 234.846L282.085 234.846L282.085 136.298ZM211.196 235.25L282.085 235.25L282.085 324.089L281.753 323.758L271.702 333.798L183.418 333.798L183.418 263.062L183.586 262.894L210.962 235.551L211.229 235.284L211.196 235.25ZM183.418 262.527L210.694 235.284L210.66 235.25L193.769 235.25L193.803 235.284L183.418 245.656L183.418 262.527ZM183.014 262.858L183.014 333.798L84.347 333.798L84.347 235.25L155.44 235.25L155.406 235.284L155.674 235.551L183.014 262.858ZM155.975 235.25L155.942 235.284L183.014 262.323L183.014 245.453L172.832 235.284L172.866 235.25L155.975 235.25ZM155.844 234.846L84.3467 234.846L84.3467 136.298L183.013 136.298L183.013 207.71L155.844 234.846ZM183.013 208.244L156.38 234.846L173.27 234.846L183.013 225.115L183.013 208.244ZM183.418 208.041L210.256 234.846L193.365 234.846L183.418 224.911L183.418 208.041ZM282.085 344.372L281.753 344.704L271.268 334.231L271.297 334.202L183.418 334.202L183.418 432.75L282.085 432.75L282.085 344.372ZM292.209 334.202L292.239 334.231L282.489 343.969L282.489 432.75L381.156 432.75L381.156 334.202L292.209 334.202ZM282.489 324.493L291.805 333.798L381.156 333.798L381.156 235.25L282.489 235.25L282.489 324.493ZM1074.65 235.25L975.987 235.25L975.987 333.798L1074.65 333.798L1074.65 235.25ZM876.915 235.25L975.582 235.25L975.582 333.798L876.915 333.798L876.915 235.25ZM876.511 235.25L777.845 235.25L777.845 333.798L876.511 333.798L876.511 235.25ZM480.631 235.25L579.298 235.25L579.298 333.798L480.631 333.798L480.631 235.25ZM480.227 235.25L381.56 235.25L381.56 333.798L480.227 333.798L480.227 235.25ZM1074.65 334.202L975.987 334.202L975.987 432.75L1074.65 432.75L1074.65 334.202ZM876.915 334.202L975.582 334.202L975.582 432.75L904.178 432.75L904.306 432.622L904.038 432.354L876.915 405.264L876.915 334.202ZM876.915 405.799L903.771 432.622L903.642 432.75L886.751 432.75L886.88 432.622L876.915 422.67L876.915 405.799ZM876.511 422.266L876.511 405.395L876.394 405.278L849.018 432.622L849.147 432.75L866.037 432.75L865.909 432.622L876.394 422.149L876.511 422.266ZM876.511 442.977L876.394 443.094L866.442 433.154L849.551 433.154L876.394 459.965L876.511 459.848L876.511 442.977ZM886.347 433.154L876.915 442.574L876.915 459.444L903.238 433.154L886.347 433.154ZM903.773 433.154L975.582 433.154L975.582 531.702L876.915 531.702L876.915 459.979L903.773 433.154ZM876.511 460.383L876.511 531.702L777.845 531.702L777.845 433.154L849.016 433.154L876.127 460.232L876.394 460.5L876.511 460.383ZM848.611 432.75L777.845 432.75L777.845 334.202L876.511 334.202L876.511 404.86L876.394 404.744L876.127 405.011L848.751 432.354L848.483 432.622L848.611 432.75ZM678.773 334.202L777.44 334.202L777.44 432.75L678.773 432.75L678.773 334.202ZM678.369 334.202L579.702 334.202L579.702 432.75L678.369 432.75L678.369 334.202ZM480.631 334.202L579.298 334.202L579.298 432.75L480.631 432.75L480.631 334.202ZM480.227 334.202L381.56 334.202L381.56 432.75L480.227 432.75L480.227 334.202ZM84.3467 334.202L183.013 334.202L183.013 432.75L84.3467 432.75L84.3467 334.202ZM1074.65 433.154L975.987 433.154L975.987 531.702L1074.65 531.702L1074.65 433.154ZM678.773 433.154L777.44 433.154L777.44 531.702L678.773 531.702L678.773 433.154ZM678.369 433.154L579.702 433.154L579.702 531.702L678.369 531.702L678.369 433.154ZM480.631 433.154L579.298 433.154L579.298 531.702L480.631 531.702L480.631 433.154ZM480.227 433.154L381.56 433.154L381.56 531.702L480.227 531.702L480.227 433.154ZM282.489 433.154L381.156 433.154L381.156 531.702L282.489 531.702L282.489 433.154ZM282.085 433.154L183.418 433.154L183.418 531.702L282.085 531.702L282.085 433.154ZM84.3467 433.154L183.013 433.154L183.013 531.702L84.3467 531.702L84.3467 433.154ZM1074.65 532.106L975.987 532.106L975.987 630.654L1074.65 630.654L1074.65 532.106ZM876.915 532.106L975.582 532.106L975.582 630.654L876.915 630.654L876.915 532.106ZM876.511 532.106L777.845 532.106L777.845 630.654L876.511 630.654L876.511 532.106ZM678.773 532.106L777.44 532.106L777.44 630.654L678.773 630.654L678.773 532.106ZM678.369 532.106L579.702 532.106L579.702 630.654L678.369 630.654L678.369 532.106ZM480.631 532.106L579.298 532.106L579.298 630.654L480.631 630.654L480.631 532.106ZM480.227 532.106L381.56 532.106L381.56 630.654L480.227 630.654L480.227 532.106ZM282.489 532.106L381.156 532.106L381.156 630.654L282.489 630.654L282.489 532.106ZM282.085 532.106L183.418 532.106L183.418 630.654L282.085 630.654L282.085 532.106ZM84.347 532.106L183.014 532.106L183.014 630.654L84.347 630.654L84.347 532.106Z" fill="url(#paint0_radial_9277_1697)" fill-opacity="0.6"/>
</g>
<defs>
<filter id="filter0_f_9277_1697" x="378.267" y="-166.733" width="1173.37" height="1191.35" filterUnits="userSpaceOnUse" color-interpolation-filters="sRGB">
<feFlood flood-opacity="0" result="BackgroundImageFix"/>
<feBlend mode="normal" in="SourceGraphic" in2="BackgroundImageFix" result="shape"/>
<feGaussianBlur stdDeviation="250" result="effect1_foregroundBlur_9277_1697"/>
</filter>
<filter id="filter1_f_9277_1697" x="-257.875" y="-37.5005" width="1224.68" height="1099.4" filterUnits="userSpaceOnUse" color-interpolation-filters="sRGB">
<feFlood flood-opacity="0" result="BackgroundImageFix"/>
<feBlend mode="normal" in="SourceGraphic" in2="BackgroundImageFix" result="shape"/>
<feGaussianBlur stdDeviation="250" result="effect1_foregroundBlur_9277_1697"/>
</filter>
<radialGradient id="paint0_radial_9277_1697" cx="0" cy="0" r="1" gradientUnits="userSpaceOnUse" gradientTransform="translate(359.916 295.676) rotate(14.9151) scale(339.471 267.592)">
<stop stop-color="#89B0DC"/>
<stop offset="1" stop-opacity="0"/>
</radialGradient>
<clipPath id="clip0_9277_1697">
<rect width="1358" height="800" fill="white"/>
</clipPath>
</defs>
</svg>
