<svg width="1728" height="1351" viewBox="0 0 1728 1351" fill="none" xmlns="http://www.w3.org/2000/svg">
<g clip-path="url(#clip0_9207_8298)">
<g opacity="0.7">
<g filter="url(#filter0_f_9207_8298)">
<rect width="182.52" height="491.877" transform="matrix(-1 0 0 1 691.146 456.391)" fill="#2388FF"/>
</g>
<g filter="url(#filter1_f_9207_8298)">
<rect width="350.964" height="196.153" transform="matrix(-1 0 0 1 1244.86 591.851)" fill="#1A156D"/>
</g>
</g>
<circle cx="207.5" cy="207.5" r="207" transform="matrix(-1 0 0 1 1092.04 529.042)" fill="url(#paint0_linear_9207_8298)" stroke="url(#paint1_linear_9207_8298)"/>
<circle opacity="0.7" cx="345.5" cy="345.5" r="345" transform="matrix(-1 0 0 1 1230.04 391.042)" fill="url(#paint2_linear_9207_8298)" stroke="url(#paint3_linear_9207_8298)"/>
<path opacity="0.5" d="M401.542 736.542C401.542 1003.29 618.012 1219.54 885.042 1219.54C1152.07 1219.54 1368.54 1003.29 1368.54 736.542C1368.54 469.789 1152.07 253.542 885.042 253.542C618.012 253.542 401.542 469.789 401.542 736.542Z" fill="url(#paint4_linear_9207_8298)" stroke="url(#paint5_linear_9207_8298)"/>
<circle opacity="0.3" cx="622.5" cy="622.5" r="622" transform="matrix(-1 0 0 1 1507.04 114.042)" fill="url(#paint6_linear_9207_8298)" stroke="url(#paint7_linear_9207_8298)"/>
<circle opacity="0.15" cx="760.5" cy="760.5" r="760" transform="matrix(-1 0 0 1 1624.04 -23.9583)" fill="url(#paint8_linear_9207_8298)" stroke="url(#paint9_linear_9207_8298)"/>
<ellipse cx="6.5" cy="6" rx="6.5" ry="6" transform="matrix(-1 0 0 1 766.042 566.042)" fill="white"/>
<circle cx="6" cy="6" r="6" transform="matrix(-1 0 0 1 688.042 291.042)" fill="white"/>
<ellipse cx="6" cy="6.5" rx="6" ry="6.5" transform="matrix(-1 0 0 1 1057.04 609.042)" fill="white"/>
<ellipse cx="6.5" cy="6" rx="6.5" ry="6" transform="matrix(-1 0 0 1 575.042 592.042)" fill="white"/>
<circle cx="6" cy="6" r="6" transform="matrix(-1 0 0 1 961.042 391.042)" fill="white"/>
</g>
<defs>
<filter id="filter0_f_9207_8298" x="-50.775" y="-103.009" width="1301.32" height="1610.68" filterUnits="userSpaceOnUse" color-interpolation-filters="sRGB">
<feFlood flood-opacity="0" result="BackgroundImageFix"/>
<feBlend mode="normal" in="SourceGraphic" in2="BackgroundImageFix" result="shape"/>
<feGaussianBlur stdDeviation="279.7" result="effect1_foregroundBlur_9207_8298"/>
</filter>
<filter id="filter1_f_9207_8298" x="334.494" y="32.451" width="1469.76" height="1314.95" filterUnits="userSpaceOnUse" color-interpolation-filters="sRGB">
<feFlood flood-opacity="0" result="BackgroundImageFix"/>
<feBlend mode="normal" in="SourceGraphic" in2="BackgroundImageFix" result="shape"/>
<feGaussianBlur stdDeviation="279.7" result="effect1_foregroundBlur_9207_8298"/>
</filter>
<linearGradient id="paint0_linear_9207_8298" x1="207.5" y1="0" x2="207.5" y2="415" gradientUnits="userSpaceOnUse">
<stop offset="0.265" stop-color="white" stop-opacity="0.35"/>
<stop offset="1" stop-color="white" stop-opacity="0.012"/>
</linearGradient>
<linearGradient id="paint1_linear_9207_8298" x1="207.5" y1="0" x2="207.5" y2="415" gradientUnits="userSpaceOnUse">
<stop stop-color="white"/>
<stop offset="1" stop-color="white" stop-opacity="0.4"/>
</linearGradient>
<linearGradient id="paint2_linear_9207_8298" x1="345.5" y1="0" x2="345.5" y2="691" gradientUnits="userSpaceOnUse">
<stop offset="0.265" stop-color="white" stop-opacity="0.35"/>
<stop offset="1" stop-color="white" stop-opacity="0.012"/>
</linearGradient>
<linearGradient id="paint3_linear_9207_8298" x1="345.5" y1="0" x2="345.5" y2="691" gradientUnits="userSpaceOnUse">
<stop stop-color="white"/>
<stop offset="1" stop-color="white" stop-opacity="0.4"/>
</linearGradient>
<linearGradient id="paint4_linear_9207_8298" x1="885.042" y1="253.042" x2="885.042" y2="1220.04" gradientUnits="userSpaceOnUse">
<stop offset="0.265" stop-color="white" stop-opacity="0.35"/>
<stop offset="1" stop-color="white" stop-opacity="0.012"/>
</linearGradient>
<linearGradient id="paint5_linear_9207_8298" x1="885.042" y1="253.042" x2="885.042" y2="1220.04" gradientUnits="userSpaceOnUse">
<stop stop-color="white"/>
<stop offset="1" stop-color="white" stop-opacity="0.4"/>
</linearGradient>
<linearGradient id="paint6_linear_9207_8298" x1="622.5" y1="0" x2="622.5" y2="1245" gradientUnits="userSpaceOnUse">
<stop offset="0.265" stop-color="white" stop-opacity="0.35"/>
<stop offset="1" stop-color="white" stop-opacity="0.012"/>
</linearGradient>
<linearGradient id="paint7_linear_9207_8298" x1="622.5" y1="0" x2="622.5" y2="1245" gradientUnits="userSpaceOnUse">
<stop stop-color="white"/>
<stop offset="1" stop-color="white" stop-opacity="0.4"/>
</linearGradient>
<linearGradient id="paint8_linear_9207_8298" x1="760.5" y1="0" x2="760.5" y2="1521" gradientUnits="userSpaceOnUse">
<stop offset="0.265" stop-color="white" stop-opacity="0.35"/>
<stop offset="1" stop-color="white" stop-opacity="0.012"/>
</linearGradient>
<linearGradient id="paint9_linear_9207_8298" x1="760.5" y1="0" x2="760.5" y2="1521" gradientUnits="userSpaceOnUse">
<stop stop-color="white"/>
<stop offset="1" stop-color="white" stop-opacity="0.4"/>
</linearGradient>
<clipPath id="clip0_9207_8298">
<rect width="1729" height="1351" fill="white" transform="matrix(-1 0 0 1 1728 0)"/>
</clipPath>
</defs>
</svg>
