<svg width="177" height="177" viewBox="0 0 177 177" fill="none" xmlns="http://www.w3.org/2000/svg">
<path fill-rule="evenodd" clip-rule="evenodd" d="M112.174 0C147.976 1.65832e-06 177 29.0235 177 64.8259V93.4255C177 115.464 166.002 134.934 149.195 146.647V177L102.47 158.251H64.8259C29.0235 158.251 0 129.228 0 93.4255V64.8259C0 29.0235 29.0235 0 64.8259 0H112.174ZM56.0871 47.9838C48.4528 47.9838 42.2639 54.1727 42.2639 61.807V99.9399C42.2639 107.574 48.4528 113.763 56.0871 113.763C63.7214 113.763 69.9102 107.574 69.9102 99.9399V61.807C69.9102 54.1727 63.7214 47.9838 56.0871 47.9838ZM120.913 47.9838C113.279 47.9838 107.09 54.1727 107.09 61.807V99.9399C107.09 107.574 113.279 113.763 120.913 113.763C128.547 113.763 134.736 107.574 134.736 99.9399V61.807C134.736 54.1727 128.547 47.9838 120.913 47.9838Z" fill="#016BFF"/>
</svg>
